<?xml version="1.0" encoding="UTF-8"?>
<svg id="Color" xmlns="http://www.w3.org/2000/svg" version="1.1" viewBox="0 0 800 283">
  <!-- Generator: Adobe Illustrator 29.1.0, SVG Export Plug-In . SVG Version: 2.1.0 Build 142)  -->
  <defs>
    <style>
      .st0 {
        fill: #24468e;
      }

      .st1 {
        fill: #c8102e;
      }
    </style>
  </defs>
  <polygon class="st1" points="306.9 38.8 191.3 38.8 191.3 61.5 254.7 61.5 198.6 142.5 207.6 162.6 306.9 162.6 306.9 139.9 239.3 139.9 306.9 38.8"/>
  <g>
    <g>
      <path class="st0" d="M422,59.1c-15-8-28.7-11.7-43-11.7-30.1,0-52.7,22.8-52.7,53.4s22.5,53.1,54,53.1,26.5-3.7,43-12.4v9.7c-14,7.4-28.8,11.3-42.8,11.3-36.8,0-64.2-26.4-64.2-61.7s30.2-62.1,63.3-62.1,27.8,3.4,42.5,10.1v10.3h0Z"/>
      <path class="st0" d="M567.4,100.7c0-34.7-28.2-62-64.1-62s-63.8,27.3-63.8,62,28,62,63.8,62,64.1-27.2,64.1-62ZM449.7,100.7c0-30.1,23.7-53.3,54-53.3s53.7,23.2,53.7,53.3-23.4,53.3-53.7,53.3-54-23.1-54-53.3Z"/>
      <path class="st0" d="M593.4,95.3h20.5c21.8,0,32.3-9.4,32.3-24.3s-10-24.2-32.7-24.2h-20.2v48.5h.1ZM615.6,38.8c30.3,0,41.1,15.4,41.1,32s-7.8,24.3-23.6,30.1c5.8,3.1,10.7,10.2,16.5,18.9l28,42.9h-11.3l-21.6-34c-14.9-23.4-19.6-25.4-34.5-25.4h-16.7v59.4h-9.6V38.8h31.7Z"/>
      <path class="st0" d="M703.5,96.5h23c23,0,31.5-11,31.5-25s-8.7-24.8-30.4-24.8h-24.1v49.8ZM727.9,38.8c28.9,0,40.3,14.8,40.3,32.6s-9.2,33.1-41.2,33.1h-23.5v57.7h-9.6V38.8h34Z"/>
    </g>
    <path class="st0" d="M152.5,38.4h-22.9L40.6,247.3h33.7l25.7-60.2h84.2l27.2,60.2h33.7L152.5,38.4ZM107.5,160.6l33-80.1,35.6,80.1h-68.6Z"/>
    <path class="st0" d="M284.7,242.8c-1.8,1.5-3.6,2.6-5.2,3.3-1.7.6-3.5.9-5.4.9-3.2,0-5.6-.8-7.3-2.3-1.7-1.5-2.6-3.5-2.6-5.9s.3-2.7,1-3.9c.6-1.2,1.5-2.1,2.5-2.8s2.2-1.2,3.5-1.6c1-.3,2.4-.5,4.3-.7,3.9-.5,6.8-1,8.7-1.7v-1.3c0-2-.5-3.4-1.4-4.2-1.2-1.1-3.1-1.7-5.6-1.7s-4,.4-5.1,1.2-1.9,2.2-2.4,4.3l-4.8-.7c.4-2,1.1-3.7,2.1-5s2.4-2.2,4.3-2.9,4.1-1,6.5-1,4.5.3,6,.9,2.7,1.3,3.4,2.2c.7.9,1.2,2,1.5,3.3.2.8.2,2.3.2,4.5v6.5c0,4.5.1,7.4.3,8.6.2,1.2.6,2.4,1.2,3.5h-5.1c-.1-1-.5-2.2-.6-3.5ZM284.3,231.9c-1.8.7-4.4,1.3-8,1.8-2,.3-3.4.6-4.3,1s-1.5.9-1.9,1.6-.7,1.5-.7,2.3c0,1.3.5,2.4,1.5,3.3s2.4,1.3,4.3,1.3,3.6-.4,5-1.2,2.5-1.9,3.2-3.4c.5-1.1.8-2.7.8-4.9v-1.8h.1Z"/>
    <g>
      <path class="st0" d="M334.9,242.7c-1,1.5-3.1,2.7-6.3,3.4-2.4.6-4.9.9-7.4.9-4.1,0-7.4-.9-9.9-2.6-2.8-1.9-4.2-4.8-4.2-8.7v-14.9c0-7.6,4.3-11.4,12.8-11.4s11,1.2,15.1,3.6v10.3h-11.7v-4c0-.6-.2-1.1-.6-1.5s-.9-.6-1.4-.6c-1.4,0-2.1.9-2.1,2.8v16.7c0,.6.2,1.2.6,1.7.4.6.9.8,1.5.8s1.1-.3,1.5-.8.5-1.1.5-1.8v-5.7h11.7v11.8h-.1Z"/>
      <path class="st0" d="M354.1,247h-14.8v-6.4c1-.8,1.4-1.8,1.4-3.1v-18.8c0-1.1-.5-2-1.4-2.6v-6.7h14.8v6.7c-.9.7-1.3,1.9-1.3,3.7v16.7c0,1.1.1,1.8.2,2.2.1.6.5,1.2,1.2,1.9v6.4h-.1Z"/>
      <path class="st0" d="M389.3,247h-14.8v-6.4c.9-.8,1.3-1.9,1.3-3.4h-5.8c0,1.6.4,2.7,1.3,3.4v6.4h-12.8v-6.9c.9-.8,1.5-2,1.8-3.7l4.8-27h16.9l5.1,27.3c.3,1.7,1,3,2.1,3.8v6.5h0ZM374.5,229.8l-1.8-11-1.7,11h3.5Z"/>
      <path class="st0" d="M424,216.1c-.6.4-1,1-1.2,1.6-.1.4-.2,1.1-.2,2.1v27.2h-11.3l-7.2-16.9v5.9c0,1.1,0,1.8.1,2.2.2.8.7,1.3,1.4,1.6v7.2h-11.8v-6.9c.9-.5,1.3-1.4,1.3-2.8v-18.6c0-1.3-.4-2.1-1.3-2.7v-6.7h12.8l6.4,17v-7.9c0-1.1-.3-2-1-2.4v-6.7h12v6.8h0Z"/>
      <path class="st0" d="M458.8,236.1c0,7.3-4.3,10.9-12.8,10.9h-17.5v-6.9c.8-.3,1.3-.8,1.6-1.4.1-.4.2-1.1.2-2.2v-15.6c0-1.3-.1-2.1-.2-2.6-.3-.9-.8-1.4-1.6-1.5v-7.3h14.5c5.1,0,8.6.4,10.6,1.3,3.1,1.3,4.6,4,4.6,8.1s-2.1,8-6.2,8.7c2.3.3,4,1.2,5.1,2.7s1.7,3.4,1.7,5.8ZM446.4,221.7c0-1.6-.4-2.7-1.1-3.3-.8-.6-1.9-.9-3.6-.9v6.8c1.6,0,2.7-.1,3.1-.2,1-.4,1.6-1.2,1.6-2.4ZM446.4,235.7c0-1.3-.4-2.4-1.2-3.2-.8-.8-1.9-1.3-3.2-1.3h-.3v7.9c1.7,0,2.8-.1,3.4-.4.8-.5,1.3-1.5,1.3-3Z"/>
      <path class="st0" d="M493.5,247h-12.2c-.8-2.3-1.2-5-1.2-7.9v-3.4c0-1.1-.4-2-1.1-2.5-.5-.4-1.4-.7-2.7-.9v4.6c0,2.2.5,3.5,1.4,3.8v6.4h-14.5v-6.4c.9-.8,1.3-2.3,1.3-4.6v-16.9c0-1.2-.4-2-1.3-2.3v-7.3h17.1c4.4,0,7.4.4,8.9,1.3,2.4,1.4,3.6,4.3,3.6,8.7s-.4,4.3-1.1,5.6c-.8,1.6-2.3,2.7-4.4,3.4,3.2.5,4.8,2.4,4.8,5.8v2.9c0,1.8.4,3,1.3,3.4v6.3h.1ZM480.7,221.9v-.7c-.1-1.6-.5-2.6-1.1-3.1s-1.7-.7-3.4-.7v7.6h1c2.4,0,3.5-1,3.5-3.1Z"/>
      <path class="st0" d="M526.3,236.4c0,7.1-4.9,10.6-14.6,10.6s-7.8-.9-10-2.6c-2.4-1.9-3.7-4.9-3.7-9.1v-15c0-7.3,4.8-10.9,14.4-10.9s7.7.7,9.9,2c2.6,1.7,3.9,4.5,3.9,8.6v16.4h0ZM514.4,235.7v-15.3c0-1.1,0-1.9-.2-2.1-.3-.5-.8-.7-1.8-.7-1.6,0-2.4,1-2.4,2.9v15.3c0,2.2.8,3.3,2.4,3.3,1.4,0,2-1.2,2-3.4Z"/>
    </g>
    <path class="st0" d="M565.1,236.5l4.8.6c-.5,3.3-1.9,5.9-4,7.8s-4.8,2.8-8,2.8-7.1-1.3-9.5-3.9-3.6-6.3-3.6-11.1.5-5.8,1.5-8.2c1-2.3,2.6-4.1,4.7-5.3s4.4-1.8,6.9-1.8,5.7.8,7.7,2.4,3.3,3.8,3.8,6.7l-4.7.7c-.5-1.9-1.3-3.4-2.4-4.4-1.1-1-2.5-1.5-4.2-1.5-2.5,0-4.5.9-6,2.6-1.5,1.8-2.3,4.6-2.3,8.4s.7,6.7,2.2,8.4c1.5,1.8,3.4,2.6,5.8,2.6s3.5-.6,4.8-1.8c1.4-.8,2.2-2.6,2.5-5Z"/>
    <path class="st0" d="M572.3,232.6c0-5.3,1.5-9.3,4.5-11.9,2.5-2.1,5.5-3.2,9.1-3.2s7.2,1.3,9.7,3.9,3.8,6.2,3.8,10.8-.6,6.6-1.7,8.8c-1.1,2.1-2.7,3.8-4.9,5-2.1,1.2-4.4,1.8-7,1.8-4,0-7.3-1.3-9.8-3.9-2.5-2.7-3.7-6.4-3.7-11.3ZM577.3,232.6c0,3.7.8,6.5,2.4,8.3s3.6,2.8,6.1,2.8,4.4-.9,6.1-2.8c1.6-1.8,2.4-4.7,2.4-8.4s-.8-6.3-2.4-8.1c-1.6-1.8-3.6-2.8-6-2.8s-4.5.9-6.1,2.7c-1.7,1.9-2.5,4.6-2.5,8.3Z"/>
    <path class="st0" d="M605,247v-28.8h4.4v4c.9-1.4,2.1-2.5,3.6-3.4s3.2-1.3,5.1-1.3,3.9.4,5.3,1.3c1.4.9,2.3,2.1,2.9,3.7,2.3-3.4,5.2-5,8.9-5s5.1.8,6.6,2.4,2.3,4,2.3,7.3v19.8h-4.9v-18.2c0-2-.2-3.4-.5-4.2-.3-.9-.9-1.6-1.7-2.1s-1.8-.8-2.9-.8c-2,0-3.7.7-5,2s-2,3.5-2,6.5v16.8h-4.9v-18.7c0-2.2-.4-3.8-1.2-4.9s-2.1-1.6-3.9-1.6-2.6.4-3.8,1.1-2,1.8-2.5,3.2-.8,3.4-.8,6v15h-5,0Z"/>
    <path class="st0" d="M651.3,258.1v-39.9h4.5v3.7c1-1.5,2.2-2.6,3.6-3.3s2.9-1.1,4.8-1.1,4.6.6,6.5,1.9,3.3,3.1,4.3,5.4,1.4,4.8,1.4,7.6-.5,5.6-1.6,8-2.6,4.2-4.6,5.4-4.1,1.9-6.4,1.9-3.1-.3-4.4-1-2.4-1.6-3.2-2.6v14h-4.9ZM655.7,232.8c0,3.7.8,6.4,2.3,8.2s3.3,2.7,5.5,2.7,4-.9,5.6-2.8c1.5-1.8,2.3-4.7,2.3-8.5s-.8-6.4-2.3-8.2-3.3-2.7-5.4-2.7-3.9,1-5.5,2.9-2.5,4.7-2.5,8.4Z"/>
    <path class="st0" d="M701,243.5c-1.8,1.5-3.6,2.6-5.2,3.3-1.7.6-3.5.9-5.4.9-3.2,0-5.6-.8-7.3-2.3s-2.6-3.5-2.6-5.9.3-2.7,1-3.9,1.5-2.1,2.5-2.8,2.2-1.2,3.5-1.6c1-.3,2.4-.5,4.3-.7,3.9-.5,6.8-1,8.7-1.7v-1.3c0-2-.5-3.4-1.4-4.2-1.2-1.1-3.1-1.7-5.6-1.7s-4,.4-5.1,1.2-1.9,2.2-2.4,4.3l-4.8-.7c.4-2,1.1-3.7,2.1-5s2.4-2.2,4.3-2.9c1.9-.7,4.1-1,6.5-1s4.5.3,6,.9,2.7,1.3,3.4,2.2,1.2,2,1.5,3.3c.2.8.2,2.3.2,4.5v6.5c0,4.5,0,7.4.3,8.6s.6,2.4,1.2,3.5h-4.7c-.5-1-.8-2.1-1-3.5ZM700.6,232.6c-1.8.7-4.4,1.3-8,1.8-2,.3-3.4.6-4.3,1-.8.4-1.5.9-1.9,1.6-.5.7-.7,1.5-.7,2.3,0,1.3.5,2.4,1.5,3.3s2.4,1.3,4.3,1.3,3.6-.4,5-1.2,2.5-1.9,3.2-3.4c.5-1.1.8-2.7.8-4.9v-1.8h.1Z"/>
    <path class="st0" d="M713.1,247v-28.8h4.4v4.1c2.1-3.2,5.2-4.7,9.2-4.7s3.3.3,4.8.9,2.5,1.4,3.3,2.5c.7,1,1.2,2.2,1.5,3.6.2.9.3,2.5.3,4.7v17.7h-4.9v-17.5c0-2-.2-3.5-.6-4.5s-1.1-1.8-2-2.4c-1-.6-2.1-.9-3.4-.9-2.1,0-3.9.7-5.4,2s-2.3,3.8-2.3,7.5v15.8h-4.9Z"/>
    <path class="st0" d="M743.8,258.1l-.5-4.6c1.1.3,2,.4,2.8.4s2-.2,2.6-.5c.7-.4,1.2-.9,1.6-1.5.3-.5.8-1.7,1.5-3.6,0-.3.2-.7.4-1.2l-10.9-28.9h5.3l6,16.7c.8,2.1,1.5,4.3,2.1,6.7.6-2.2,1.2-4.4,2-6.6l6.2-16.8h4.9l-11,29.3c-1.2,3.2-2.1,5.3-2.7,6.5-.9,1.6-1.9,2.8-3,3.5-1.1.8-2.5,1.1-4,1.1-1.1.1-2.1-.1-3.3-.5Z"/>
  </g>
</svg>